<?xml version="1.0" encoding="iso-8859-1"?>
<!-- Generator: Adobe Illustrator 19.0.0, SVG Export Plug-In . SVG Version: 6.00 Build 0)  -->
<svg xmlns="http://www.w3.org/2000/svg" xmlns:xlink="http://www.w3.org/1999/xlink" version="1.1" id="Capa_1" x="0px" y="0px" viewBox="0 0 480.119 480.119" style="enable-background:new 0 0 480.119 480.119;" xml:space="preserve" width="512px" height="512px">
<g>
	<g>
		<g>
			<path d="M456.059,0h-432c-13.255,0-24,10.745-24,24s10.745,24,24,24h104v66.4C36.547,176.256,12.505,300.586,74.361,392.099     c61.856,91.513,186.186,115.554,277.699,53.698s115.554-186.186,53.699-277.698c-14.306-21.165-32.534-39.393-53.699-53.699V48     h104c13.255,0,24-10.745,24-24S469.314,0,456.059,0z M424.059,280c0,101.62-82.38,184-184,184s-184-82.38-184-184     s82.38-184,184-184C341.634,96.11,423.949,178.425,424.059,280z M144.059,104.608V48h192v56.608     C276.265,71.797,203.854,71.797,144.059,104.608z M456.059,32h-432c-4.418,0-8-3.582-8-8s3.582-8,8-8h432c4.418,0,8,3.582,8,8     S460.478,32,456.059,32z" fill="#303030"/>
			<path d="M144.059,224v64c0.031,28.698,14.067,55.575,37.6,72h-37.6c-13.255,0-24,10.745-24,24s10.745,24,24,24h192     c13.255,0,24-10.745,24-24s-10.745-24-24-24h-37.56c21.195-14.83,34.784-38.241,37.152-64h8.408c22.091,0,40-17.909,40-40     s-17.909-40-40-40h-9.472c-3.378-9.555-12.394-15.958-22.528-16h-144C154.804,200,144.059,210.745,144.059,224z M336.059,232h8     c13.255,0,24,10.745,24,24s-10.745,24-24,24h-8V232z M336.059,376c4.418,0,8,3.582,8,8s-3.582,8-8,8h-192c-4.418,0-8-3.582-8-8     s3.582-8,8-8H336.059z M320.059,224v64c-0.044,39.746-32.254,71.956-72,72h-16c-39.746-0.044-71.956-32.254-72-72v-64     c0-4.418,3.582-8,8-8h144C316.478,216,320.059,219.582,320.059,224z" fill="#303030"/>
			<path d="M251.899,120h-16c0.051,2.223-0.787,4.374-2.328,5.976c-7.13,8.987-7.13,21.701,0,30.688c3.123,3.39,3.123,8.61,0,12     c-3.525,4.328-5.419,9.755-5.352,15.336h16c-0.055-2.23,0.786-4.388,2.336-5.992c7.127-8.994,7.127-21.71,0-30.704     c-3.131-3.387-3.131-8.613,0-12C250.079,130.989,251.97,125.571,251.899,120z" fill="#303030"/>
			<path d="M180.219,184h16c-0.055-2.23,0.786-4.388,2.336-5.992c7.127-8.994,7.127-21.71,0-30.704c-3.131-3.387-3.131-8.613,0-12     c3.523-4.315,5.415-9.733,5.344-15.304h-16c0.051,2.223-0.787,4.374-2.328,5.976c-7.13,8.987-7.13,21.701,0,30.688     c3.123,3.39,3.123,8.61,0,12C182.047,172.992,180.152,178.419,180.219,184z" fill="#303030"/>
			<path d="M276.219,184h16c-0.055-2.23,0.786-4.388,2.336-5.992c7.127-8.994,7.127-21.71,0-30.704c-3.131-3.387-3.131-8.613,0-12     c3.523-4.315,5.415-9.733,5.344-15.304h-16c0.051,2.223-0.787,4.374-2.328,5.976c-7.13,8.987-7.13,21.701,0,30.688     c3.123,3.39,3.123,8.61,0,12C278.047,172.992,276.152,178.419,276.219,184z" fill="#303030"/>
		</g>
	</g>
</g>
<g>
</g>
<g>
</g>
<g>
</g>
<g>
</g>
<g>
</g>
<g>
</g>
<g>
</g>
<g>
</g>
<g>
</g>
<g>
</g>
<g>
</g>
<g>
</g>
<g>
</g>
<g>
</g>
<g>
</g>
</svg>
